<?xml version="1.0" encoding="utf-8"?>
<!-- Generator: Adobe Illustrator 19.2.0, SVG Export Plug-In . SVG Version: 6.00 Build 0)  -->
<svg version="1.1" id="Layer_1" xmlns="http://www.w3.org/2000/svg" xmlns:xlink="http://www.w3.org/1999/xlink" x="0px" y="0px"
	 viewBox="0 0 1106.658 669.687" style="enable-background:new 0 0 1106.658 669.687;" xml:space="preserve">
<style type="text/css">
	.st0{fill:#00AFFF;}
</style>
<g>
	<path class="st0" d="M599.454,666.403h-91.24c-13.807,0-25-11.193-25-25v-45h-69.763c-13.807,0-25-11.193-25-25s11.193-25,25-25
		h94.763c13.807,0,25,11.193,25,25v45h41.24l0-45c0-13.808,11.193-25,25-25h93.752c13.807,0,25,11.193,25,25s-11.193,25-25,25
		h-68.753v45C624.454,655.211,613.26,666.403,599.454,666.403z"/>
</g>
<g>
	<path class="st0" d="M188.015,669.687c-0.601,0-1.207-0.003-1.812-0.008c-50.005-0.475-96.829-20.225-131.87-55.61
		C19.295,578.686,0,531.672,0,481.686c0-40.362,12.607-78.838,36.457-111.268c14.993-20.387,33.572-37.28,54.816-50.013
		c-19.283-23.134-29.994-52.823-29.235-83.86c0.797-32.596,14.09-63.262,37.428-86.347c23.334-23.082,54.14-36.044,86.742-36.498
		c33.992-0.5,66.061,12.405,90.26,36.269C300.671,173.836,314,205.698,314,239.687c0,29.818-10.712,58.356-29.339,80.729
		c6.394,3.841,12.574,8.073,18.516,12.685c10.908,8.464,12.888,24.169,4.423,35.077c-8.466,10.907-24.17,12.887-35.078,4.424
		c-12.479-9.685-26.375-17.089-41.301-22.007c-9.33-3.073-15.994-11.326-17.036-21.094c-1.041-9.768,3.734-19.239,12.206-24.212
		c23.199-13.614,37.61-38.752,37.61-65.603c0-20.501-8.04-39.72-22.639-54.116c-14.335-14.137-33.247-21.883-53.359-21.883
		c-0.365,0-0.73,0.002-1.096,0.008c-19.613,0.273-38.179,8.104-52.278,22.05c-14.097,13.945-22.125,32.42-22.605,52.022
		c-0.676,27.646,13.727,53.519,37.587,67.521c8.471,4.973,13.247,14.444,12.205,24.212c-1.041,9.768-7.706,18.021-17.036,21.094
		C88.089,369.272,50,421.954,50,481.686c0,36.724,14.156,71.243,39.86,97.201c25.705,25.957,60.08,40.445,96.794,40.794
		c0.752,0.007,1.528,0.008,2.297,0.003c24.422-0.167,46.02-6.539,66.045-19.478c19.737-12.754,38.038-31.839,55.948-58.346
		c0.058-0.086,0.116-0.171,0.175-0.256l53.44-77.017h-34.405c-9.474,0-18.135-5.355-22.367-13.832
		c-4.232-8.477-3.31-18.617,2.383-26.19l123.55-164.353h-28.45c-9.357,0-17.931-5.226-22.22-13.542
		c-4.289-8.317-3.574-18.332,1.853-25.956L534.537,10.503C539.227,3.913,546.815,0,554.904,0s15.677,3.913,20.367,10.503
		l149.632,210.212c5.427,7.624,6.142,17.639,1.853,25.956c-4.288,8.316-12.862,13.542-22.22,13.542h-28.45l123.551,164.353
		c5.693,7.573,6.616,17.714,2.384,26.19s-12.893,13.832-22.367,13.832h-35.464l51.572,77.343
		c17.895,26.472,36.179,45.532,55.899,58.275c20.025,12.938,41.623,19.311,66.027,19.478c0.789,0.005,1.562,0.005,2.338-0.003
		c36.691-0.349,71.066-14.837,96.771-40.794c25.704-25.958,39.86-60.479,39.86-97.201c-0.001-59.731-38.09-112.413-94.78-131.091
		c-9.329-3.073-15.994-11.326-17.036-21.094c-1.041-9.768,3.733-19.239,12.205-24.212c23.861-14.003,38.264-39.876,37.588-67.521
		c-0.479-19.603-8.508-38.077-22.605-52.022c-14.099-13.945-32.664-21.776-52.277-22.05c-0.364-0.006-0.732-0.008-1.096-0.008
		c-20.113,0-39.022,7.745-53.358,21.882c-14.6,14.397-22.64,33.616-22.64,54.117c0,26.851,14.411,51.988,37.61,65.603
		c8.472,4.973,13.246,14.444,12.205,24.212c-1.042,9.768-7.707,18.021-17.036,21.094c-14.926,4.918-28.822,12.322-41.302,22.007
		c-10.91,8.464-26.613,6.483-35.078-4.424c-8.465-10.908-6.483-26.613,4.424-35.078c5.942-4.61,12.122-8.843,18.516-12.685
		c-18.627-22.372-29.339-50.91-29.339-80.729c0-33.988,13.329-65.851,37.531-89.718c23.768-23.438,55.115-36.281,88.445-36.281
		c0.605,0,1.209,0.004,1.814,0.013c32.603,0.454,63.408,13.416,86.742,36.498c23.338,23.085,36.631,53.751,37.428,86.347
		c0.76,31.037-9.952,60.727-29.234,83.86c21.244,12.732,39.823,29.626,54.816,50.013c23.85,32.429,36.456,70.905,36.457,111.268
		c0,49.986-19.296,97-54.332,132.383c-35.041,35.386-81.865,55.136-131.848,55.61c-1.068,0.008-2.11,0.012-3.149,0.003
		c-64.619-0.442-117.957-33.097-163.045-99.829c-0.028-0.042-0.057-0.084-0.085-0.127l-77.527-116.269
		c-5.115-7.671-5.593-17.535-1.242-25.665c4.35-8.129,12.821-13.204,22.042-13.204h32.112L606.032,250.235
		c-5.693-7.573-6.616-17.714-2.384-26.19c4.232-8.477,12.893-13.832,22.367-13.832h30.038L554.904,68.11l-101.15,142.103h30.038
		c9.474,0,18.135,5.355,22.367,13.832c4.232,8.477,3.31,18.617-2.383,26.19L380.225,414.588h32.111
		c9.304,0,17.837,5.166,22.151,13.409c4.313,8.243,3.692,18.199-1.611,25.843l-80.589,116.142
		c-45.069,66.643-98.383,99.259-162.976,99.7C188.882,669.686,188.45,669.687,188.015,669.687z"/>
</g>
</svg>
